#Comment line ignore any data following # character 
#Hierarchical Translation and Rotation (.htr) file 
[Header]	
#Header keywords are followed by a single value 
FileType HTR		#Single word string
DataType HTRS		#Translation followed by rotation and scale data
FileVersion 1		#integer
NumSegments 84		#integer
NumFrames 2		#integer
DataFrameRate 30		#integer, data frame rate in this file
EulerRotationOrder ZYX
CalibrationUnits mm
RotationUnits Degrees
GlobalAxisofGravity Y
BoneLengthAxis Y
ScaleFactor 1.00
[SegmentNames&Hierarchy]
#CHILD	PARENT
MASTER GLOBAL
root MASTER
chest root
L_mid_tent01 root
R_mid_tent01 root
spine01 root
Bip01_Neck chest
L_humerus chest
R_humerus chest
weapon_bone chest
Bip01_Head Bip01_Neck
eye_left_bone Bip01_Head
eye_right_bone Bip01_Head
L_forearm L_humerus
L_front_hand L_forearm
L_weapon_bone L_forearm
L_front_hand01_01 L_front_hand
L_front_hand02_01 L_front_hand
L_front_hand03_01 L_front_hand
L_front_hand01_02 L_front_hand01_01
L_front_hand02_02 L_front_hand02_01
L_front_hand03_02 L_front_hand03_01
R_forearm R_humerus
R_front_hand R_forearm
R_weapon_bone R_forearm
R_front_hand01_01 R_front_hand
R_front_hand02_01 R_front_hand
R_front_hand03_01 R_front_hand
R_front_hand01_02 R_front_hand01_01
R_front_hand02_02 R_front_hand02_01
R_front_hand03_02 R_front_hand03_01
null_rope01_connect L_mid_tent01
Rope1_Seg01 null_rope01_connect
Rope1_Seg02 Rope1_Seg01
Rope1_Seg03 Rope1_Seg02
Rope1_Seg04 Rope1_Seg03
Rope1_Seg05 Rope1_Seg04
Rope1_Seg06 Rope1_Seg05
Rope1_Seg07 Rope1_Seg06
Rope1_Seg09 Rope1_Seg07
L_mid_hand01 Rope1_Seg09
L_mid_hand02 Rope1_Seg09
L_mid_hand03 Rope1_Seg09
null_rope02_connect R_mid_tent01
Rope2_Seg01 null_rope02_connect
Rope2_Seg02 Rope2_Seg01
Rope2_Seg03 Rope2_Seg02
Rope2_Seg04 Rope2_Seg03
Rope2_Seg05 Rope2_Seg04
Rope2_Seg06 Rope2_Seg05
Rope2_Seg07 Rope2_Seg06
Rope2_Seg09 Rope2_Seg07
R_mid_hand01 Rope2_Seg09
R_mid_hand02 Rope2_Seg09
R_mid_hand03 Rope2_Seg09
spine02 spine01
spine03 spine02
pelvis spine03
null_rope03_connect pelvis
null_rope04_connect pelvis
Rope3_Seg01 null_rope03_connect
Rope3_Seg02 Rope3_Seg01
Rope3_Seg03 Rope3_Seg02
Rope3_Seg04 Rope3_Seg03
Rope3_Seg05 Rope3_Seg04
Rope3_Seg06 Rope3_Seg05
Rope3_Seg07 Rope3_Seg06
Rope3_Seg08 Rope3_Seg07
Rope3_Seg09 Rope3_Seg08
R_rear_hand01 Rope3_Seg09
R_rear_hand02 Rope3_Seg09
R_rear_hand03 Rope3_Seg09
Rope4_Seg01 null_rope04_connect
Rope4_Seg02 Rope4_Seg01
Rope4_Seg03 Rope4_Seg02
Rope4_Seg04 Rope4_Seg03
Rope4_Seg05 Rope4_Seg04
Rope4_Seg06 Rope4_Seg05
Rope4_Seg07 Rope4_Seg06
Rope4_Seg08 Rope4_Seg07
Rope4_Seg09 Rope4_Seg08
L_rear_hand01 Rope4_Seg09
L_rear_hand02 Rope4_Seg09
L_rear_hand03 Rope4_Seg09
[BasePosition]
#SegmentName Tx, Ty, Tz, Rx, Ry, Rz, BoneLength
MASTER 0.000000 0.000000 0.000000 -90.000000 0.000000 0.000000 10.000000 
root 0.000000 0.000000 0.000000 0.000000 0.000000 0.000000 10.000000 
chest 0.000000 0.000000 0.000000 0.000000 0.000000 0.000000 10.000000 
L_mid_tent01 0.000000 0.000000 0.000000 0.000000 0.000000 0.000000 10.000000 
R_mid_tent01 0.000000 0.000000 0.000000 0.000000 0.000000 0.000000 10.000000 
spine01 0.000000 0.000000 0.000000 0.000000 0.000000 0.000000 10.000000 
Bip01_Neck 0.000000 0.000000 0.000000 0.000000 0.000000 0.000000 10.000000 
L_humerus 0.000000 0.000000 0.000000 0.000000 0.000000 0.000000 10.000000 
R_humerus 0.000000 0.000000 0.000000 0.000000 0.000000 0.000000 10.000000 
weapon_bone 0.000000 0.000000 0.000000 0.000000 0.000000 0.000000 10.000000 
Bip01_Head 0.000000 0.000000 0.000000 0.000000 0.000000 0.000000 10.000000 
eye_left_bone 0.000000 0.000000 0.000000 0.000000 0.000000 0.000000 10.000000 
eye_right_bone 0.000000 0.000000 0.000000 0.000000 0.000000 0.000000 10.000000 
L_forearm 0.000000 0.000000 0.000000 0.000000 0.000000 0.000000 10.000000 
L_front_hand 0.000000 0.000000 0.000000 0.000000 0.000000 0.000000 10.000000 
L_weapon_bone 0.000000 0.000000 0.000000 0.000000 0.000000 0.000000 10.000000 
L_front_hand01_01 0.000000 0.000000 0.000000 0.000000 0.000000 0.000000 10.000000 
L_front_hand02_01 0.000000 0.000000 0.000000 0.000000 0.000000 0.000000 10.000000 
L_front_hand03_01 0.000000 0.000000 0.000000 0.000000 0.000000 0.000000 10.000000 
L_front_hand01_02 0.000000 0.000000 0.000000 0.000000 0.000000 0.000000 10.000000 
L_front_hand02_02 0.000000 0.000000 0.000000 0.000000 0.000000 0.000000 10.000000 
L_front_hand03_02 0.000000 0.000000 0.000000 0.000000 0.000000 0.000000 10.000000 
R_forearm 0.000000 0.000000 0.000000 0.000000 0.000000 0.000000 10.000000 
R_front_hand 0.000000 0.000000 0.000000 0.000000 0.000000 0.000000 10.000000 
R_weapon_bone 0.000000 0.000000 0.000000 0.000000 0.000000 0.000000 10.000000 
R_front_hand01_01 0.000000 0.000000 0.000000 0.000000 0.000000 0.000000 10.000000 
R_front_hand02_01 0.000000 0.000000 0.000000 0.000000 0.000000 0.000000 10.000000 
R_front_hand03_01 0.000000 0.000000 0.000000 0.000000 0.000000 0.000000 10.000000 
R_front_hand01_02 0.000000 0.000000 0.000000 0.000000 0.000000 0.000000 10.000000 
R_front_hand02_02 0.000000 0.000000 0.000000 0.000000 0.000000 0.000000 10.000000 
R_front_hand03_02 0.000000 0.000000 0.000000 0.000000 0.000000 0.000000 10.000000 
null_rope01_connect 0.000000 0.000000 0.000000 0.000000 0.000000 0.000000 10.000000 
Rope1_Seg01 0.000000 0.000000 0.000000 0.000000 0.000000 0.000000 10.000000 
Rope1_Seg02 0.000000 0.000000 0.000000 0.000000 0.000000 0.000000 10.000000 
Rope1_Seg03 0.000000 0.000000 0.000000 0.000000 0.000000 0.000000 10.000000 
Rope1_Seg04 0.000000 0.000000 0.000000 0.000000 0.000000 0.000000 10.000000 
Rope1_Seg05 0.000000 0.000000 0.000000 0.000000 0.000000 0.000000 10.000000 
Rope1_Seg06 0.000000 0.000000 0.000000 0.000000 0.000000 0.000000 10.000000 
Rope1_Seg07 0.000000 0.000000 0.000000 0.000000 0.000000 0.000000 10.000000 
Rope1_Seg09 0.000000 0.000000 0.000000 0.000000 0.000000 0.000000 10.000000 
L_mid_hand01 0.000000 0.000000 0.000000 0.000000 0.000000 0.000000 10.000000 
L_mid_hand02 0.000000 0.000000 0.000000 0.000000 0.000000 0.000000 10.000000 
L_mid_hand03 0.000000 0.000000 0.000000 0.000000 0.000000 0.000000 10.000000 
null_rope02_connect 0.000000 0.000000 0.000000 0.000000 0.000000 0.000000 10.000000 
Rope2_Seg01 0.000000 0.000000 0.000000 0.000000 0.000000 0.000000 10.000000 
Rope2_Seg02 0.000000 0.000000 0.000000 0.000000 0.000000 0.000000 10.000000 
Rope2_Seg03 0.000000 0.000000 0.000000 0.000000 0.000000 0.000000 10.000000 
Rope2_Seg04 0.000000 0.000000 0.000000 0.000000 0.000000 0.000000 10.000000 
Rope2_Seg05 0.000000 0.000000 0.000000 0.000000 0.000000 0.000000 10.000000 
Rope2_Seg06 0.000000 0.000000 0.000000 0.000000 0.000000 0.000000 10.000000 
Rope2_Seg07 0.000000 0.000000 0.000000 0.000000 0.000000 0.000000 10.000000 
Rope2_Seg09 0.000000 0.000000 0.000000 0.000000 0.000000 0.000000 10.000000 
R_mid_hand01 0.000000 0.000000 0.000000 0.000000 0.000000 0.000000 10.000000 
R_mid_hand02 0.000000 0.000000 0.000000 0.000000 0.000000 0.000000 10.000000 
R_mid_hand03 0.000000 0.000000 0.000000 0.000000 0.000000 0.000000 10.000000 
spine02 0.000000 0.000000 0.000000 0.000000 0.000000 0.000000 10.000000 
spine03 0.000000 0.000000 0.000000 0.000000 0.000000 0.000000 10.000000 
pelvis 0.000000 0.000000 0.000000 0.000000 0.000000 0.000000 10.000000 
null_rope03_connect 0.000000 0.000000 0.000000 0.000000 0.000000 0.000000 10.000000 
null_rope04_connect 0.000000 0.000000 0.000000 0.000000 0.000000 0.000000 10.000000 
Rope3_Seg01 0.000000 0.000000 0.000000 0.000000 0.000000 0.000000 10.000000 
Rope3_Seg02 0.000000 0.000000 0.000000 0.000000 0.000000 0.000000 10.000000 
Rope3_Seg03 0.000000 0.000000 0.000000 0.000000 0.000000 0.000000 10.000000 
Rope3_Seg04 0.000000 0.000000 0.000000 0.000000 0.000000 0.000000 10.000000 
Rope3_Seg05 0.000000 0.000000 0.000000 0.000000 0.000000 0.000000 10.000000 
Rope3_Seg06 0.000000 0.000000 0.000000 0.000000 0.000000 0.000000 10.000000 
Rope3_Seg07 0.000000 0.000000 0.000000 0.000000 0.000000 0.000000 10.000000 
Rope3_Seg08 0.000000 0.000000 0.000000 0.000000 0.000000 0.000000 10.000000 
Rope3_Seg09 0.000000 0.000000 0.000000 0.000000 0.000000 0.000000 10.000000 
R_rear_hand01 0.000000 0.000000 0.000000 0.000000 0.000000 0.000000 10.000000 
R_rear_hand02 0.000000 0.000000 0.000000 0.000000 0.000000 0.000000 10.000000 
R_rear_hand03 0.000000 0.000000 0.000000 0.000000 0.000000 0.000000 10.000000 
Rope4_Seg01 0.000000 0.000000 0.000000 0.000000 0.000000 0.000000 10.000000 
Rope4_Seg02 0.000000 0.000000 0.000000 0.000000 0.000000 0.000000 10.000000 
Rope4_Seg03 0.000000 0.000000 0.000000 0.000000 0.000000 0.000000 10.000000 
Rope4_Seg04 0.000000 0.000000 0.000000 0.000000 0.000000 0.000000 10.000000 
Rope4_Seg05 0.000000 0.000000 0.000000 0.000000 0.000000 0.000000 10.000000 
Rope4_Seg06 0.000000 0.000000 0.000000 0.000000 0.000000 0.000000 10.000000 
Rope4_Seg07 0.000000 0.000000 0.000000 0.000000 0.000000 0.000000 10.000000 
Rope4_Seg08 0.000000 0.000000 0.000000 0.000000 0.000000 0.000000 10.000000 
Rope4_Seg09 0.000000 0.000000 0.000000 0.000000 0.000000 0.000000 10.000000 
L_rear_hand01 0.000000 0.000000 0.000000 0.000000 0.000000 0.000000 10.000000 
L_rear_hand02 0.000000 0.000000 0.000000 0.000000 0.000000 0.000000 10.000000 
L_rear_hand03 0.000000 0.000000 0.000000 0.000000 0.000000 0.000000 10.000000 
#Beginning of Data. Separated by tabs
#Fr	Tx	Ty	Tz	Rx	Ry	Rz	SF
[MASTER]
117 -97.512817 -9.969788 -1233.149414 0.001346 0.001923 -20.001186 1237.039063
118 -97.512817 -9.969788 -1233.149414 0.001346 0.001923 -20.001186 1237.039063
[root]
117 112.648132 484.688141 2155.489014 -65.109596 -51.754631 -117.633369 2212.180908
118 112.648132 484.688141 2155.489014 -65.109596 -51.754631 -117.633369 2212.180908
[chest]
117 -84.512650 -34.090519 0.000000 -7.354864 0.147573 160.527786 91.129311
118 -84.512650 -34.090519 0.000000 -7.354864 0.147573 160.527786 91.129311
[L_mid_tent01]
117 27.298717 22.179430 -249.918793 48.485771 62.412998 141.015244 252.381744
118 27.298716 22.179432 -249.918793 48.841434 62.426632 141.425278 252.381744
[R_mid_tent01]
117 23.228794 24.509907 226.238495 29.492598 -62.071899 -144.891953 228.744751
118 23.228794 24.509907 226.238495 29.492598 -62.071899 -144.891953 228.744751
[spine01]
117 -0.361383 -0.195265 0.000000 -0.000001 -0.000007 22.052340 0.410763
118 -0.361383 -0.195265 0.000000 -0.000001 -0.000007 22.052340 0.410763
[Bip01_Neck]
117 165.484543 71.581718 0.000119 176.643677 -1.657967 43.431911 180.302734
118 165.484543 71.581718 0.000119 176.643677 -1.657967 43.431911 180.302734
[L_humerus]
117 -13.983130 -135.272980 -120.471481 178.964996 1.892241 -146.979980 181.680161
118 -13.983130 -135.272980 -120.471481 178.964996 1.892242 -146.979980 181.680161
[R_humerus]
117 -13.983309 -135.273102 125.287651 176.357590 6.146129 -145.149719 184.909012
118 -13.983309 -135.273102 125.287651 176.357590 6.146129 -145.149719 184.909012
[weapon_bone]
117 235.964890 -300.705902 0.000000 0.000000 -89.951546 -128.212341 382.234833
118 235.964890 -300.705902 0.000000 0.000000 -89.951546 -128.212341 382.234833
[Bip01_Head]
117 174.963196 149.913635 29.581446 2.404900 1.829640 -43.311592 232.295670
118 174.963196 149.913635 29.581446 2.404900 1.829640 -43.311592 232.295670
[eye_left_bone]
117 -24.626970 125.451866 -64.772606 0.000000 -90.000000 -99.840431 143.318359
118 -24.626970 125.451866 -64.772606 0.000000 -90.000000 -99.840431 143.318359
[eye_right_bone]
117 -24.626970 125.451866 64.327362 0.000000 -89.965736 80.156380 143.117676
118 -24.626970 125.451866 64.327362 0.000000 -89.965736 80.156380 143.117676
[L_forearm]
117 322.776093 0.000000 -0.000119 0.001130 -0.002057 -147.582291 322.776093
118 322.776093 0.000000 -0.000119 0.001130 -0.002057 -147.582291 322.776093
[L_front_hand]
117 241.149185 -0.042021 -3.300071 -162.722443 -1.835955 -27.421865 241.171753
118 241.149185 -0.042021 -3.300071 -163.401672 -1.835276 -27.422232 241.171753
[L_weapon_bone]
117 156.183838 0.000000 0.000000 0.000014 0.000007 0.000001 156.183838
118 156.183838 0.000000 0.000000 0.000014 0.000007 0.000001 156.183838
[L_front_hand01_01]
117 86.095154 20.947098 -0.655860 -0.366594 -0.477154 75.385574 88.609184
118 86.095154 20.947098 -0.655860 -0.366594 -0.477154 75.385582 88.609184
[L_front_hand02_01]
117 86.935165 -11.437475 24.513514 154.399811 -59.883842 -61.369587 91.046425
118 86.935165 -11.437475 24.513514 154.399811 -59.883835 -61.369606 91.046425
[L_front_hand03_01]
117 86.637497 -14.123976 -20.424902 -153.913879 58.118130 -62.702892 90.126129
118 86.637497 -14.123976 -20.424902 -153.913849 58.118130 -62.702866 90.126129
[L_front_hand01_02]
117 71.020905 -0.000179 0.000030 0.000334 -0.002323 -106.379684 71.020905
118 71.020905 -0.000179 0.000030 0.000334 -0.002323 -106.379684 71.020905
[L_front_hand02_02]
117 71.020927 -0.000119 0.000060 0.000334 -0.002323 -106.379684 71.020927
118 71.020927 -0.000119 0.000060 0.000334 -0.002323 -106.379684 71.020927
[L_front_hand03_02]
117 71.020905 -0.000060 0.000060 0.000334 -0.002323 -106.379684 71.020905
118 71.020905 -0.000060 0.000060 0.000334 -0.002323 -106.379684 71.020905
[R_forearm]
117 322.776428 -0.000060 0.000030 0.114825 0.181654 -148.389832 322.776428
118 322.776428 -0.000060 0.000030 0.114825 0.181654 -148.389832 322.776428
[R_front_hand]
117 238.847015 -0.006795 2.210259 -2.635298 -10.645461 -26.312506 238.857239
118 238.847015 -0.006795 2.210259 -2.635298 -10.645461 -26.312506 238.857239
[R_weapon_bone]
117 155.664093 0.002503 -0.000030 0.003487 0.001180 -90.988930 155.664078
118 155.664093 0.002503 -0.000030 0.003487 0.001180 -90.988930 155.664078
[R_front_hand01_01]
117 87.624611 14.231146 22.918642 -154.633514 -59.950626 61.746063 91.683487
118 87.624611 14.231146 22.918642 -154.633484 -59.950607 61.746044 91.683487
[R_front_hand02_01]
117 89.356956 14.367283 -19.491137 154.602661 58.302849 63.744381 92.579636
118 89.356956 14.367283 -19.491137 154.602661 58.302849 63.744389 92.579636
[R_front_hand03_01]
117 87.286232 -22.307278 -0.143439 0.162155 -0.423168 -75.767921 90.091743
118 87.286232 -22.307278 -0.143439 0.162155 -0.423168 -75.767906 90.091743
[R_front_hand01_02]
117 71.020905 0.000060 0.000119 0.002323 -0.000334 106.381714 71.020905
118 71.020905 0.000060 0.000119 0.002323 -0.000334 106.381714 71.020905
[R_front_hand02_02]
117 71.020844 -0.000030 -0.000119 0.002323 -0.000334 106.381714 71.020836
118 71.020844 -0.000030 -0.000119 0.002323 -0.000334 106.381714 71.020836
[R_front_hand03_02]
117 71.020905 0.000000 0.000030 0.002323 -0.000334 106.381714 71.020905
118 71.020905 0.000000 0.000030 0.002323 -0.000334 106.381714 71.020905
[null_rope01_connect]
117 328.732483 0.000000 -0.000238 -116.309883 -1.425777 131.648148 328.732483
118 328.732483 0.000000 -0.000238 -116.427940 -1.332670 131.536789 328.732483
[Rope1_Seg01]
117 -0.000067 0.000000 0.000000 -53.626293 40.119049 100.961761 0.000067
118 -0.000066 0.000000 0.000000 -53.638126 40.226379 101.108696 0.000066
[Rope1_Seg02]
117 139.999863 -0.000179 0.000000 -9.553658 3.866006 8.506356 139.999863
118 139.999863 -0.000179 0.000000 -9.533543 3.868711 8.536577 139.999863
[Rope1_Seg03]
117 139.999924 0.000060 -0.000060 -11.244599 4.133748 16.039673 139.999924
118 139.999924 0.000060 -0.000060 -11.195096 4.127080 16.084925 139.999924
[Rope1_Seg04]
117 139.999924 -0.000060 -0.000119 -8.479896 -0.898017 29.174627 139.999924
118 139.999924 -0.000060 -0.000119 -8.410265 -0.896841 29.121410 139.999924
[Rope1_Seg05]
117 139.999832 0.000119 -0.000060 -1.196483 0.409834 23.284794 139.999832
118 139.999832 0.000119 -0.000060 -1.166468 0.466568 23.190077 139.999832
[Rope1_Seg06]
117 139.999954 0.000119 -0.000060 1.837538 5.460927 11.258316 139.999954
118 139.999954 0.000119 -0.000060 1.836693 5.446610 11.251648 139.999954
[Rope1_Seg07]
117 139.999985 0.000060 0.000000 1.476294 2.298731 7.752117 139.999985
118 139.999985 0.000060 0.000000 1.474362 2.287556 7.743489 139.999985
[Rope1_Seg09]
117 121.602913 0.000119 -0.000089 -89.793175 -1.359789 0.847147 121.602913
118 121.602913 0.000119 -0.000089 -89.793175 -1.359789 0.847147 121.602913
[L_mid_hand01]
117 103.859421 1.038730 8.195221 130.544373 -67.584534 -38.866943 104.187431
118 103.859421 1.038730 8.195221 130.544373 -67.584534 -38.866943 104.187431
[L_mid_hand02]
117 105.572853 -4.139662 -10.864139 -168.923172 43.409309 -73.498886 106.211075
118 105.572853 -4.139662 -10.864139 -168.923172 43.409309 -73.498886 106.211075
[L_mid_hand03]
117 104.641464 17.579376 -3.913581 -6.012627 17.808174 74.893669 106.179977
118 104.641464 17.579376 -3.913581 -6.012627 17.808174 74.893669 106.179977
[null_rope02_connect]
117 328.732849 0.000179 -0.000119 -95.537643 0.841558 -4.719750 328.732849
118 328.732849 0.000179 -0.000119 -95.537643 0.841558 -4.719750 328.732849
[Rope2_Seg01]
117 0.000067 0.000000 0.000000 89.995110 13.329786 25.562220 0.000067
118 0.000066 0.000000 0.000000 89.963470 13.336433 25.475060 0.000066
[Rope2_Seg02]
117 139.999741 -0.000060 -0.000119 -3.556948 -7.061217 -14.025118 139.999756
118 139.999741 -0.000060 -0.000119 -3.585714 -7.060062 -14.082925 139.999756
[Rope2_Seg03]
117 140.000107 0.000030 0.000000 -4.840296 -10.415182 -23.819416 140.000107
118 140.000107 0.000030 0.000000 -4.852969 -10.358434 -23.829023 140.000107
[Rope2_Seg04]
117 139.999802 0.000000 -0.000060 -3.925963 -7.919290 -25.274111 139.999802
118 139.999802 0.000000 -0.000060 -3.907298 -7.804072 -25.143873 139.999802
[Rope2_Seg05]
117 139.999985 -0.000060 0.000119 -0.820858 3.882328 -6.854389 139.999985
118 139.999985 -0.000060 0.000119 -0.816590 3.867723 -6.851907 139.999985
[Rope2_Seg06]
117 139.999893 -0.000030 -0.000119 -0.162342 4.686145 -2.666932 139.999893
118 139.999893 -0.000030 -0.000119 -0.163953 4.634594 -2.721739 139.999893
[Rope2_Seg07]
117 139.999893 0.000060 -0.000060 0.023759 2.101829 -3.527596 139.999893
118 139.999893 0.000060 -0.000060 0.026113 2.083171 -3.545245 139.999893
[Rope2_Seg09]
117 121.338966 0.000089 -0.000060 33.793236 -1.359788 -0.847141 121.338966
118 121.338966 0.000089 -0.000060 33.793236 -1.359788 -0.847141 121.338966
[R_mid_hand01]
117 104.680779 11.144459 -10.335981 -16.212063 45.237247 70.462852 105.778534
118 104.680779 11.144459 -10.335981 -16.212063 45.237247 70.462852 105.778534
[R_mid_hand02]
117 104.070427 2.443552 8.231699 49.067368 -67.749771 39.286453 104.424065
118 104.070427 2.443552 8.231699 49.067368 -67.749771 39.286453 104.424065
[R_mid_hand03]
117 106.028137 -11.221827 -5.996406 -177.101105 15.551026 -76.585571 106.788818
118 106.028137 -11.221827 -5.996406 -177.101105 15.551026 -76.585571 106.788818
[spine02]
117 129.756927 0.001550 0.000119 0.485655 -4.030669 -14.738806 129.756927
118 129.756927 0.001550 0.000119 0.483456 -4.030943 -14.706622 129.756927
[spine03]
117 78.613892 0.081654 -4.899020 1.971813 3.793080 17.612467 78.766426
118 78.613892 0.081655 -4.899020 1.970525 3.793748 17.592644 78.766426
[pelvis]
117 169.435242 0.051022 0.000000 -0.068698 -0.178305 16.401543 169.435257
118 169.435242 0.051022 0.000000 -0.068491 -0.178350 16.360712 169.435257
[null_rope03_connect]
117 -1.257226 -2.466202 137.391083 -57.493393 -59.244686 164.683304 137.418976
118 -1.257226 -2.466202 137.391083 -57.497536 -59.243450 164.715332 137.418976
[null_rope04_connect]
117 -1.259640 -2.480268 -137.844437 -57.493393 -59.244686 164.683304 137.872513
118 -1.259640 -2.480268 -137.844437 -57.497536 -59.243450 164.715332 137.872513
[Rope3_Seg01]
117 0.000000 0.000086 0.000000 27.536913 -61.672779 -80.247040 0.000086
118 0.000000 0.000087 0.000000 27.532803 -61.694912 -80.235420 0.000087
[Rope3_Seg02]
117 139.999924 -0.000119 0.000060 -11.150607 29.277142 -15.585670 139.999924
118 139.999924 -0.000119 0.000060 -11.154072 29.279253 -15.594108 139.999924
[Rope3_Seg03]
117 139.999924 -0.000119 0.000119 -1.478852 19.829119 -1.768100 139.999924
118 139.999924 -0.000119 0.000119 -1.481849 19.841711 -1.776621 139.999924
[Rope3_Seg04]
117 139.999924 0.000119 0.000000 -3.105162 23.225834 -16.667652 139.999924
118 139.999924 0.000119 0.000000 -3.104518 23.224581 -16.665483 139.999924
[Rope3_Seg05]
117 139.999924 -0.000238 0.000060 -9.835753 30.820675 -30.349058 139.999924
118 139.999924 -0.000238 0.000060 -9.835924 30.821283 -30.349861 139.999924
[Rope3_Seg06]
117 139.999893 -0.000119 -0.000060 -1.500175 11.009170 -8.341217 139.999893
118 139.999893 -0.000119 -0.000060 -1.500592 11.010818 -8.342671 139.999893
[Rope3_Seg07]
117 139.999771 0.000060 -0.000119 -0.245644 5.310381 -3.835896 139.999771
118 139.999771 0.000060 -0.000119 -0.245672 5.310761 -3.836204 139.999771
[Rope3_Seg08]
117 139.999985 -0.000060 0.000000 0.181867 2.749207 -1.974836 139.999985
118 139.999985 -0.000060 0.000000 0.181862 2.749366 -1.974916 139.999985
[Rope3_Seg09]
117 90.185997 -0.000179 -0.000060 89.793228 -1.359877 -0.847183 90.185997
118 90.185997 -0.000179 -0.000060 89.793228 -1.359877 -0.847183 90.185997
[R_rear_hand01]
117 103.366196 -6.073594 -10.757982 -177.714203 24.565960 -73.910950 104.101845
118 103.366196 -6.073594 -10.757982 -177.714203 24.565960 -73.910950 104.101845
[R_rear_hand02]
117 100.509819 12.039542 -7.992327 -12.874829 36.868488 72.167213 101.543350
118 100.509819 12.039542 -7.992327 -12.874829 36.868488 72.167213 101.543350
[R_rear_hand03]
117 101.539970 5.215704 5.435467 71.484581 -71.816628 21.513813 101.819031
118 101.539970 5.215704 5.435467 71.484581 -71.816628 21.513813 101.819031
[Rope4_Seg01]
117 -0.000172 0.000000 0.000000 34.653988 -2.694807 133.794052 0.000172
118 -0.000173 0.000000 0.000000 34.803791 -2.585481 133.749405 0.000173
[Rope4_Seg02]
117 139.999985 0.000060 0.000119 -16.935228 21.419073 16.309210 139.999985
118 139.999985 0.000060 0.000119 -17.627399 21.262508 16.468283 139.999985
[Rope4_Seg03]
117 139.999924 0.000000 -0.000238 -93.784195 7.738199 17.057295 139.999924
118 139.999924 0.000000 -0.000238 -91.089478 7.181114 17.220108 139.999924
[Rope4_Seg04]
117 139.999985 0.000000 0.000119 -42.233223 -12.808255 12.529453 139.999985
118 139.999985 0.000000 0.000119 -43.180328 -12.288864 13.054429 139.999985
[Rope4_Seg05]
117 139.999802 -0.000060 -0.000119 -16.087194 -18.098438 4.926818 139.999802
118 139.999802 -0.000060 -0.000119 -17.181984 -18.239332 5.667243 139.999802
[Rope4_Seg06]
117 139.999924 0.000000 0.000060 -2.763124 -9.247519 -0.727764 139.999924
118 139.999924 0.000000 0.000060 -2.943892 -9.398108 -0.589005 139.999924
[Rope4_Seg07]
117 139.999802 0.000000 0.000000 -1.028201 -5.702408 -0.798882 139.999802
118 139.999802 0.000000 0.000000 -1.088534 -5.772155 -0.739117 139.999802
[Rope4_Seg08]
117 139.999924 0.000000 0.000119 -2.000746 -3.343745 -0.534585 139.999924
118 139.999924 0.000000 0.000119 -2.025834 -3.378797 -0.503961 139.999924
[Rope4_Seg09]
117 90.185791 0.000060 0.000060 -135.617828 2.228885 0.850567 90.185791
118 90.185791 0.000060 0.000060 -135.617828 2.228885 0.850567 90.185791
[L_rear_hand01]
117 101.696655 -8.392275 -7.654577 -12.874829 -36.868488 107.832764 102.329041
118 101.696655 -8.392275 -7.654577 -12.874829 -36.868488 107.832764 102.329041
[L_rear_hand02]
117 102.726799 -1.568258 5.773216 71.484581 71.816628 158.486160 102.900848
118 102.726799 -1.568258 5.773216 71.484581 71.816628 158.486160 102.900848
[L_rear_hand03]
117 104.552910 9.721220 -10.420293 -177.714203 -24.565960 -106.089035 105.519653
118 104.552910 9.721220 -10.420293 -177.714203 -24.565960 -106.089035 105.519653
